<mxfile host="app.diagrams.net" modified="2023-11-21T12:46:22.658Z" agent="Mozilla/5.0 (X11; Ubuntu; Linux x86_64; rv:109.0) Gecko/20100101 Firefox/119.0" etag="5kZehmgTausjwYjwu41i" version="22.1.3" type="device">
  <diagram name="Page-1" id="IgYT0WSTmDFqdCeHUXt1">
    <mxGraphModel dx="1360" dy="795" grid="1" gridSize="10" guides="1" tooltips="1" connect="1" arrows="1" fold="1" page="1" pageScale="1" pageWidth="827" pageHeight="1169" math="0" shadow="0">
      <root>
        <mxCell id="0" />
        <mxCell id="1" parent="0" />
        <mxCell id="441TNSBwLX1rDtVzlsD3-1" value="" style="strokeWidth=2;html=1;shape=mxgraph.flowchart.annotation_1;align=left;pointerEvents=1;" vertex="1" parent="1">
          <mxGeometry x="80" y="330" width="40" height="440" as="geometry" />
        </mxCell>
        <mxCell id="441TNSBwLX1rDtVzlsD3-14" value="" style="group" vertex="1" connectable="0" parent="1">
          <mxGeometry x="120" y="340" width="110" height="110" as="geometry" />
        </mxCell>
        <mxCell id="441TNSBwLX1rDtVzlsD3-8" value="" style="whiteSpace=wrap;html=1;aspect=fixed;" vertex="1" parent="441TNSBwLX1rDtVzlsD3-14">
          <mxGeometry width="110" height="110" as="geometry" />
        </mxCell>
        <mxCell id="441TNSBwLX1rDtVzlsD3-9" value="" style="ellipse;whiteSpace=wrap;html=1;aspect=fixed;fillColor=#f5f5f5;fontColor=#333333;strokeColor=#666666;" vertex="1" parent="441TNSBwLX1rDtVzlsD3-14">
          <mxGeometry x="6.875" y="6.875" width="27.5" height="27.5" as="geometry" />
        </mxCell>
        <mxCell id="441TNSBwLX1rDtVzlsD3-10" value="" style="ellipse;whiteSpace=wrap;html=1;aspect=fixed;fillColor=#fff2cc;strokeColor=#d6b656;" vertex="1" parent="441TNSBwLX1rDtVzlsD3-14">
          <mxGeometry x="75.625" y="13.75" width="27.5" height="27.5" as="geometry" />
        </mxCell>
        <mxCell id="441TNSBwLX1rDtVzlsD3-11" value="" style="ellipse;whiteSpace=wrap;html=1;aspect=fixed;fillColor=#f8cecc;strokeColor=#b85450;" vertex="1" parent="441TNSBwLX1rDtVzlsD3-14">
          <mxGeometry x="48.125" y="61.875" width="27.5" height="27.5" as="geometry" />
        </mxCell>
        <mxCell id="441TNSBwLX1rDtVzlsD3-12" value="" style="ellipse;whiteSpace=wrap;html=1;aspect=fixed;fillColor=#fff2cc;strokeColor=#d6b656;" vertex="1" parent="441TNSBwLX1rDtVzlsD3-14">
          <mxGeometry x="34.375" y="27.5" width="27.5" height="27.5" as="geometry" />
        </mxCell>
        <mxCell id="441TNSBwLX1rDtVzlsD3-13" value="" style="ellipse;whiteSpace=wrap;html=1;aspect=fixed;fillColor=#dae8fc;strokeColor=#6c8ebf;" vertex="1" parent="441TNSBwLX1rDtVzlsD3-14">
          <mxGeometry x="6.875" y="75.625" width="27.5" height="27.5" as="geometry" />
        </mxCell>
        <mxCell id="441TNSBwLX1rDtVzlsD3-15" value="" style="group" vertex="1" connectable="0" parent="1">
          <mxGeometry x="120" y="460" width="110" height="110" as="geometry" />
        </mxCell>
        <mxCell id="441TNSBwLX1rDtVzlsD3-16" value="" style="whiteSpace=wrap;html=1;aspect=fixed;" vertex="1" parent="441TNSBwLX1rDtVzlsD3-15">
          <mxGeometry width="110" height="110" as="geometry" />
        </mxCell>
        <mxCell id="441TNSBwLX1rDtVzlsD3-17" value="" style="ellipse;whiteSpace=wrap;html=1;aspect=fixed;fillColor=#f5f5f5;fontColor=#333333;strokeColor=#666666;" vertex="1" parent="441TNSBwLX1rDtVzlsD3-15">
          <mxGeometry x="19.994999999999997" y="13.754999999999999" width="27.5" height="27.5" as="geometry" />
        </mxCell>
        <mxCell id="441TNSBwLX1rDtVzlsD3-18" value="" style="ellipse;whiteSpace=wrap;html=1;aspect=fixed;fillColor=#f8cecc;strokeColor=#b85450;" vertex="1" parent="441TNSBwLX1rDtVzlsD3-15">
          <mxGeometry x="75.625" y="13.75" width="27.5" height="27.5" as="geometry" />
        </mxCell>
        <mxCell id="441TNSBwLX1rDtVzlsD3-19" value="" style="ellipse;whiteSpace=wrap;html=1;aspect=fixed;fillColor=#f8cecc;strokeColor=#b85450;" vertex="1" parent="441TNSBwLX1rDtVzlsD3-15">
          <mxGeometry x="41.255" y="75.625" width="27.5" height="27.5" as="geometry" />
        </mxCell>
        <mxCell id="441TNSBwLX1rDtVzlsD3-20" value="" style="ellipse;whiteSpace=wrap;html=1;aspect=fixed;fillColor=#fff2cc;strokeColor=#d6b656;" vertex="1" parent="441TNSBwLX1rDtVzlsD3-15">
          <mxGeometry x="75.625" y="48.129999999999995" width="27.5" height="27.5" as="geometry" />
        </mxCell>
        <mxCell id="441TNSBwLX1rDtVzlsD3-21" value="" style="ellipse;whiteSpace=wrap;html=1;aspect=fixed;fillColor=#dae8fc;strokeColor=#6c8ebf;" vertex="1" parent="441TNSBwLX1rDtVzlsD3-15">
          <mxGeometry x="2.505" y="48.135000000000005" width="27.5" height="27.5" as="geometry" />
        </mxCell>
        <mxCell id="441TNSBwLX1rDtVzlsD3-22" value="" style="group" vertex="1" connectable="0" parent="1">
          <mxGeometry x="120" y="650" width="110" height="110" as="geometry" />
        </mxCell>
        <mxCell id="441TNSBwLX1rDtVzlsD3-23" value="" style="whiteSpace=wrap;html=1;aspect=fixed;" vertex="1" parent="441TNSBwLX1rDtVzlsD3-22">
          <mxGeometry width="110" height="110" as="geometry" />
        </mxCell>
        <mxCell id="441TNSBwLX1rDtVzlsD3-24" value="" style="ellipse;whiteSpace=wrap;html=1;aspect=fixed;fillColor=#ffe6cc;strokeColor=#d79b00;" vertex="1" parent="441TNSBwLX1rDtVzlsD3-22">
          <mxGeometry x="6.875" y="6.875" width="27.5" height="27.5" as="geometry" />
        </mxCell>
        <mxCell id="441TNSBwLX1rDtVzlsD3-25" value="" style="ellipse;whiteSpace=wrap;html=1;aspect=fixed;fillColor=#f8cecc;strokeColor=#b85450;" vertex="1" parent="441TNSBwLX1rDtVzlsD3-22">
          <mxGeometry x="75.625" y="13.75" width="27.5" height="27.5" as="geometry" />
        </mxCell>
        <mxCell id="441TNSBwLX1rDtVzlsD3-26" value="" style="ellipse;whiteSpace=wrap;html=1;aspect=fixed;fillColor=#f8cecc;strokeColor=#b85450;" vertex="1" parent="441TNSBwLX1rDtVzlsD3-22">
          <mxGeometry x="48.125" y="61.875" width="27.5" height="27.5" as="geometry" />
        </mxCell>
        <mxCell id="441TNSBwLX1rDtVzlsD3-27" value="" style="ellipse;whiteSpace=wrap;html=1;aspect=fixed;fillColor=#f8cecc;strokeColor=#b85450;" vertex="1" parent="441TNSBwLX1rDtVzlsD3-22">
          <mxGeometry x="34.375" y="27.5" width="27.5" height="27.5" as="geometry" />
        </mxCell>
        <mxCell id="441TNSBwLX1rDtVzlsD3-28" value="" style="ellipse;whiteSpace=wrap;html=1;aspect=fixed;fillColor=#dae8fc;strokeColor=#6c8ebf;" vertex="1" parent="441TNSBwLX1rDtVzlsD3-22">
          <mxGeometry x="6.875" y="75.625" width="27.5" height="27.5" as="geometry" />
        </mxCell>
        <mxCell id="441TNSBwLX1rDtVzlsD3-29" value="" style="endArrow=none;dashed=1;html=1;rounded=0;strokeWidth=2;" edge="1" parent="1">
          <mxGeometry width="50" height="50" relative="1" as="geometry">
            <mxPoint x="174.76" y="640" as="sourcePoint" />
            <mxPoint x="175" y="580" as="targetPoint" />
          </mxGeometry>
        </mxCell>
        <mxCell id="441TNSBwLX1rDtVzlsD3-31" value="" style="strokeWidth=2;html=1;shape=mxgraph.flowchart.annotation_1;align=left;pointerEvents=1;rotation=-180;" vertex="1" parent="1">
          <mxGeometry x="230" y="330" width="40" height="440" as="geometry" />
        </mxCell>
        <mxCell id="441TNSBwLX1rDtVzlsD3-34" value="&lt;b&gt;&lt;font style=&quot;font-size: 23px;&quot;&gt;One Data Example&lt;/font&gt;&lt;/b&gt;" style="text;html=1;strokeColor=none;fillColor=none;align=center;verticalAlign=middle;whiteSpace=wrap;rounded=0;" vertex="1" parent="1">
          <mxGeometry x="120" y="270" width="270" height="40" as="geometry" />
        </mxCell>
        <mxCell id="441TNSBwLX1rDtVzlsD3-38" value="" style="group" vertex="1" connectable="0" parent="1">
          <mxGeometry x="300" y="330" width="124" height="440" as="geometry" />
        </mxCell>
        <mxCell id="441TNSBwLX1rDtVzlsD3-32" value="" style="strokeWidth=2;html=1;shape=mxgraph.flowchart.annotation_1;align=left;pointerEvents=1;" vertex="1" parent="441TNSBwLX1rDtVzlsD3-38">
          <mxGeometry width="40" height="440" as="geometry" />
        </mxCell>
        <mxCell id="441TNSBwLX1rDtVzlsD3-33" value="" style="strokeWidth=2;html=1;shape=mxgraph.flowchart.annotation_1;align=left;pointerEvents=1;rotation=-180;" vertex="1" parent="441TNSBwLX1rDtVzlsD3-38">
          <mxGeometry x="84" width="40" height="440" as="geometry" />
        </mxCell>
        <mxCell id="441TNSBwLX1rDtVzlsD3-35" value="&lt;font size=&quot;1&quot;&gt;&lt;b style=&quot;font-size: 17px;&quot;&gt;Label 1&lt;/b&gt;&lt;/font&gt;" style="text;html=1;strokeColor=none;fillColor=none;align=center;verticalAlign=middle;whiteSpace=wrap;rounded=0;" vertex="1" parent="441TNSBwLX1rDtVzlsD3-38">
          <mxGeometry x="30" y="40" width="70" height="30" as="geometry" />
        </mxCell>
        <mxCell id="441TNSBwLX1rDtVzlsD3-36" value="&lt;font size=&quot;1&quot;&gt;&lt;b style=&quot;font-size: 17px;&quot;&gt;Label 2&lt;/b&gt;&lt;/font&gt;" style="text;html=1;strokeColor=none;fillColor=none;align=center;verticalAlign=middle;whiteSpace=wrap;rounded=0;" vertex="1" parent="441TNSBwLX1rDtVzlsD3-38">
          <mxGeometry x="30" y="170" width="70" height="30" as="geometry" />
        </mxCell>
        <mxCell id="441TNSBwLX1rDtVzlsD3-37" value="&lt;font size=&quot;1&quot;&gt;&lt;b style=&quot;font-size: 17px;&quot;&gt;Label n&lt;/b&gt;&lt;/font&gt;" style="text;html=1;strokeColor=none;fillColor=none;align=center;verticalAlign=middle;whiteSpace=wrap;rounded=0;" vertex="1" parent="441TNSBwLX1rDtVzlsD3-38">
          <mxGeometry x="30" y="370" width="70" height="30" as="geometry" />
        </mxCell>
      </root>
    </mxGraphModel>
  </diagram>
</mxfile>
